<svg width="54" height="45" viewBox="0 0 54 45" fill="none" xmlns="http://www.w3.org/2000/svg">
<path d="M0.0945975 29.4138C0.430085 26.626 1.44959 24.1676 3.21141 21.8984C5.31929 19.1835 8.18785 17.1391 10.9619 15.1622C13.672 13.2308 16.2317 11.4066 18.0594 9.05283C18.0597 9.0525 18.0599 9.05225 18.0601 9.05193C19.282 7.47823 20.0552 5.79467 20.4114 3.92834L19.6145 3.30963C18.9355 2.78243 18.8124 1.80453 19.3396 1.12551C19.8668 0.446491 20.8447 0.323403 21.5237 0.850597L23.0443 2.03118L39.7572 15.0071L61.0321 31.5251C61.7111 32.0523 61.8342 33.0302 61.307 33.7092C60.7798 34.3883 59.8019 34.5113 59.1229 33.9842L39.8157 18.9939C39.2859 20.7592 38.4311 22.3927 37.2313 23.9381C35.1235 26.6529 32.2551 28.697 29.4811 30.6738C26.7709 32.6053 24.2109 34.4296 22.3833 36.7836C20.9774 38.5944 20.1646 40.5498 19.8984 42.7617C19.8315 43.3184 19.4703 43.7961 18.9526 44.0122C18.435 44.2282 17.8414 44.1491 17.3985 43.8052L0.685503 30.8292C0.253553 30.494 0.0292034 29.9566 0.0945975 29.4138ZM27.6744 28.1387C30.3847 26.2072 32.9446 24.3828 34.7722 22.029C35.9945 20.4547 36.7684 18.7712 37.1247 16.9048L23.1035 6.01861C22.5738 7.78356 21.7187 9.41635 20.5191 10.9612C20.5189 10.9615 20.5185 10.962 20.5182 10.9624C18.4104 13.6768 15.5423 15.7208 12.7686 17.6974C10.0583 19.629 7.49812 21.4536 5.67044 23.8076C4.44816 25.3819 3.67422 27.0654 3.31791 28.9317L17.3393 39.8179C17.869 38.0528 18.7245 36.4197 19.9243 34.8744C22.032 32.1596 24.9005 30.1154 27.6744 28.1387Z" fill="#EBEBEB"/>
</svg>
